<svg id="svg" version="1.1" xmlns="http://www.w3.org/2000/svg" xmlns:xlink="http://www.w3.org/1999/xlink" width="400" height="400" viewBox="0, 0, 400,400"><g id="svgg"><path id="path0" d="M316.000 173.611 C 312.053 175.653,302.665 176.642,298.190 175.488 C 296.895 175.154,297.691 174.686,280.632 185.803 C 274.992 189.478,272.058 191.003,269.539 191.569 C 268.639 191.771,267.742 192.098,267.544 192.296 C 267.337 192.503,267.189 210.456,267.194 234.827 L 267.202 277.000 268.123 278.796 C 268.648 279.820,269.780 281.110,270.756 281.796 L 272.469 283.000 292.995 283.000 L 313.521 283.000 315.260 281.741 C 316.216 281.048,317.404 279.715,317.899 278.778 L 318.800 277.074 318.800 224.937 C 318.800 166.592,319.096 172.009,316.000 173.611 M222.036 187.415 C 218.207 189.717,215.031 191.600,214.981 191.600 C 214.624 191.600,204.147 198.160,203.911 198.531 C 203.482 199.205,203.547 275.090,203.978 276.948 C 204.461 279.030,206.263 281.204,208.423 282.309 L 210.200 283.218 230.261 283.109 L 250.322 283.000 252.060 281.741 C 253.016 281.048,254.204 279.713,254.701 278.774 L 255.604 277.067 255.502 234.452 L 255.400 191.836 253.995 191.544 C 251.664 191.060,247.587 189.017,244.211 186.643 L 241.021 184.400 237.595 184.400 C 235.710 184.400,233.131 184.130,231.865 183.800 C 230.598 183.470,229.435 183.207,229.280 183.215 C 229.126 183.223,225.866 185.113,222.036 187.415 M123.289 195.345 C 117.481 197.849,117.878 197.510,116.186 201.404 C 109.965 215.713,94.443 221.795,80.500 215.385 C 78.039 214.254,77.599 214.154,77.595 214.726 C 77.593 215.097,77.593 229.260,77.597 246.200 L 77.603 277.000 78.502 278.743 C 78.996 279.702,80.183 281.052,81.139 281.743 L 82.878 283.000 102.739 283.113 C 125.066 283.241,124.855 283.264,127.324 280.380 C 129.637 277.678,129.600 278.439,129.600 233.969 C 129.600 195.403,129.562 193.201,128.900 193.214 C 128.515 193.222,125.990 194.181,123.289 195.345 M140.800 236.155 L 140.800 277.510 142.100 279.432 C 142.903 280.620,144.081 281.711,145.183 282.288 L 146.966 283.221 167.049 283.111 L 187.132 283.000 188.866 281.798 C 190.001 281.010,190.980 279.846,191.700 278.426 L 192.800 276.257 192.800 240.952 C 192.800 217.924,192.661 205.562,192.401 205.401 C 192.182 205.265,190.247 206.222,188.101 207.528 C 179.453 212.788,173.780 214.313,166.857 213.237 C 158.381 211.919,152.610 208.187,146.570 200.118 C 143.447 195.947,142.295 194.800,141.226 194.800 C 140.927 194.800,140.800 207.151,140.800 236.155 " stroke="none" fill="#1d264b" fill-rule="evenodd"></path><path id="path1" d="M0.000 200.000 L 0.000 400.000 200.000 400.000 L 400.000 400.000 400.000 200.000 L 400.000 0.000 200.000 0.000 L 0.000 0.000 0.000 200.000 M310.523 136.113 C 322.215 141.466,322.672 157.684,311.289 163.283 C 307.757 165.021,301.385 165.228,298.516 163.698 C 295.987 162.349,295.827 162.410,287.415 167.900 C 268.878 179.998,268.739 180.079,265.200 180.832 C 259.143 182.119,254.105 180.330,246.600 174.226 C 244.092 172.186,243.353 171.886,242.300 172.479 C 240.593 173.441,234.541 173.085,231.850 171.865 C 228.222 170.220,228.943 169.894,207.600 182.832 C 205.510 184.099,203.080 185.571,202.200 186.103 C 200.360 187.215,194.684 190.544,190.600 192.906 C 189.060 193.796,187.170 194.925,186.400 195.415 C 170.256 205.678,163.875 204.703,153.365 190.370 C 147.904 182.921,148.846 183.599,143.775 183.475 C 139.577 183.372,137.429 182.633,134.127 180.155 C 132.390 178.852,133.287 178.569,118.800 184.994 C 116.490 186.018,113.970 187.097,113.200 187.390 C 112.430 187.684,110.769 188.387,109.510 188.952 C 107.050 190.058,107.044 190.067,106.600 194.000 C 105.039 207.798,85.120 210.853,78.381 198.328 C 71.592 185.711,85.889 171.657,98.838 178.219 C 101.240 179.436,101.537 179.435,104.237 178.200 C 105.440 177.650,106.504 177.200,106.602 177.200 C 106.700 177.200,107.959 176.660,109.400 176.000 C 110.841 175.340,112.100 174.800,112.197 174.800 C 112.474 174.800,126.239 168.904,127.576 168.213 C 128.457 167.757,128.883 167.149,129.199 165.897 C 131.371 157.300,138.085 152.683,146.513 153.990 C 155.631 155.405,160.912 164.193,158.224 173.478 L 157.507 175.956 158.970 177.878 C 163.633 184.005,165.284 186.242,165.998 187.396 C 168.189 190.942,170.713 190.980,176.306 187.549 C 177.788 186.641,181.160 184.629,183.800 183.080 C 186.440 181.531,190.370 179.203,192.533 177.906 C 194.696 176.610,197.036 175.225,197.733 174.829 C 198.430 174.433,201.250 172.767,204.000 171.127 C 206.750 169.486,212.079 166.312,215.841 164.073 L 222.682 160.002 222.939 156.962 C 223.648 148.582,229.326 143.400,237.800 143.400 L 242.200 143.400 244.995 145.015 C 250.627 148.271,253.671 154.612,252.470 160.591 C 251.895 163.456,251.846 163.372,255.848 166.333 C 261.735 170.689,260.924 170.834,272.514 163.358 C 280.651 158.108,284.271 155.783,287.848 153.506 L 289.497 152.457 289.672 149.112 C 290.219 138.704,301.212 131.851,310.523 136.113 M319.901 223.928 L 320.003 276.445 319.146 278.437 C 316.643 284.256,315.678 284.465,292.000 284.319 L 272.600 284.200 270.600 282.968 C 269.352 282.199,268.149 281.008,267.400 279.799 L 266.200 277.863 266.095 235.079 C 266.023 206.098,266.123 192.134,266.402 191.797 C 266.629 191.524,267.667 191.066,268.708 190.781 C 272.415 189.764,278.940 186.024,289.695 178.752 C 290.958 177.898,292.075 177.200,292.178 177.200 C 292.280 177.200,293.047 176.732,293.882 176.160 C 296.264 174.528,296.784 174.444,300.818 175.049 C 306.367 175.881,311.215 175.057,316.310 172.415 C 317.570 171.762,318.870 171.269,319.200 171.320 C 319.729 171.400,319.812 177.605,319.901 223.928 M232.003 182.814 C 232.771 183.042,235.290 183.284,237.600 183.353 L 241.800 183.478 244.600 185.594 C 247.455 187.750,251.638 189.916,254.709 190.826 C 257.011 191.508,256.844 187.805,256.715 235.400 L 256.600 277.800 255.548 279.400 C 252.232 284.442,252.547 284.381,229.764 284.391 L 210.528 284.400 208.096 283.185 C 206.187 282.231,205.377 281.523,204.332 279.894 L 203.000 277.819 202.892 237.935 L 202.785 198.052 204.130 197.026 C 204.870 196.462,205.611 196.000,205.776 196.000 C 205.941 196.000,206.554 195.661,207.138 195.247 C 207.722 194.833,208.830 194.133,209.600 193.693 C 210.370 193.252,213.160 191.580,215.800 189.976 C 228.774 182.096,229.097 181.953,232.003 182.814 M130.200 234.800 C 130.200 282.420,130.430 278.664,127.325 281.683 C 124.529 284.402,124.525 284.402,103.250 284.382 C 88.605 284.369,83.861 284.244,82.735 283.841 C 80.002 282.865,78.037 280.760,76.911 277.600 C 76.386 276.127,76.130 214.770,76.643 213.433 C 76.985 212.541,77.428 212.623,80.596 214.162 C 93.995 220.669,109.677 214.676,115.349 200.880 C 117.026 196.802,116.813 197.039,119.896 195.810 C 123.565 194.348,125.146 193.656,126.800 192.787 C 127.570 192.383,128.650 192.085,129.200 192.126 L 130.200 192.200 130.200 234.800 M142.906 194.336 C 143.295 194.489,145.146 196.682,147.020 199.207 C 157.708 213.611,171.836 216.386,187.000 207.061 C 191.419 204.344,192.594 203.869,193.174 204.569 C 193.507 204.970,193.598 214.798,193.514 241.458 L 193.400 277.800 192.418 279.515 C 189.689 284.280,189.253 284.362,166.600 284.379 L 147.400 284.392 145.378 283.451 C 142.887 282.291,140.628 279.729,140.042 277.399 C 139.384 274.788,139.421 195.139,140.080 194.480 C 140.603 193.957,141.795 193.896,142.906 194.336 " stroke="none" fill="#f3f3f4" fill-rule="evenodd"></path><path id="path2" d="M302.800 135.862 C 295.621 137.282,291.026 142.190,290.540 148.955 C 290.251 152.973,289.849 153.795,287.674 154.817 C 286.657 155.295,285.193 156.207,284.421 156.843 C 283.649 157.480,282.874 158.000,282.699 158.000 C 282.369 158.000,279.386 159.919,276.597 161.926 C 275.715 162.560,274.365 163.404,273.597 163.800 C 272.829 164.197,270.940 165.373,269.400 166.414 C 262.625 170.996,261.322 171.212,257.391 168.409 C 255.856 167.315,254.026 166.010,253.326 165.509 C 251.519 164.220,251.211 163.334,251.681 160.772 C 253.767 149.402,241.845 140.213,231.690 145.365 C 226.748 147.872,223.600 152.582,223.600 157.471 C 223.600 160.607,223.582 160.626,217.154 164.402 C 207.121 170.295,200.871 173.972,195.657 177.048 C 192.718 178.782,189.371 180.740,188.219 181.400 C 187.067 182.060,185.331 183.109,184.362 183.730 C 171.114 192.226,168.080 192.774,164.736 187.273 C 163.842 185.802,161.845 183.099,160.900 182.081 C 160.625 181.785,160.400 181.368,160.400 181.154 C 160.400 180.941,159.571 179.879,158.557 178.795 C 156.542 176.641,156.481 176.210,157.595 172.000 C 159.059 166.467,154.799 156.400,150.993 156.400 C 150.721 156.400,150.286 156.145,150.027 155.832 C 149.255 154.903,144.541 154.295,141.676 154.757 C 136.592 155.575,131.946 159.613,130.579 164.400 C 130.233 165.610,129.768 166.974,129.545 167.430 C 129.072 168.398,124.571 170.732,119.600 172.586 C 118.610 172.956,117.440 173.481,117.000 173.754 C 116.560 174.027,115.030 174.665,113.600 175.173 C 112.170 175.681,110.818 176.241,110.595 176.418 C 110.372 176.595,109.202 177.110,107.995 177.562 C 106.788 178.014,105.087 178.747,104.215 179.192 C 102.095 180.273,100.983 180.213,97.955 178.851 C 91.957 176.153,83.681 177.823,80.961 182.280 C 76.036 190.349,76.343 195.829,82.039 201.525 C 90.517 210.003,104.600 204.766,105.837 192.676 C 106.168 189.435,106.898 188.701,111.400 187.079 C 112.940 186.525,115.460 185.503,117.000 184.808 C 118.540 184.114,120.570 183.198,121.511 182.773 C 122.452 182.348,123.419 182.000,123.662 182.000 C 123.904 182.000,125.204 181.480,126.551 180.844 C 132.041 178.251,132.760 178.184,135.418 180.012 C 138.515 182.143,140.737 182.800,144.850 182.800 L 148.492 182.800 149.872 184.300 C 150.631 185.125,152.366 187.401,153.726 189.358 C 155.087 191.314,156.875 193.631,157.700 194.506 C 158.525 195.381,159.200 196.219,159.200 196.369 C 159.200 197.038,164.100 200.007,166.220 200.623 C 171.153 202.057,176.116 200.920,182.200 196.961 C 183.300 196.246,185.286 195.062,186.614 194.330 C 190.027 192.450,191.373 191.635,194.266 189.700 C 195.664 188.765,196.908 188.000,197.030 188.000 C 197.312 188.000,203.376 184.396,206.844 182.167 C 208.298 181.233,210.548 179.908,211.844 179.224 C 215.078 177.518,217.280 176.235,220.800 174.007 C 227.530 169.747,228.659 169.441,232.052 170.965 C 235.126 172.345,238.633 172.653,241.397 171.783 L 243.604 171.089 245.802 172.549 C 247.011 173.351,248.000 174.186,248.000 174.404 C 248.000 174.622,248.195 174.800,248.433 174.800 C 248.671 174.800,250.003 175.642,251.393 176.671 C 259.560 182.715,267.670 181.260,280.165 171.509 C 280.805 171.009,281.817 170.330,282.413 170.000 C 283.009 169.670,284.015 169.052,284.649 168.627 C 285.282 168.202,286.880 167.173,288.200 166.341 C 289.520 165.509,291.383 164.262,292.341 163.571 C 294.706 161.862,296.503 161.676,299.226 162.857 C 308.791 167.006,319.649 159.048,318.673 148.604 C 317.950 140.860,309.958 134.445,302.800 135.862 " stroke="none" fill="#59bbcc" fill-rule="evenodd"></path><path id="path3" d="M301.400 135.154 C 294.552 136.977,290.026 142.364,289.672 149.112 L 289.497 152.457 287.848 153.506 C 284.271 155.783,280.651 158.108,272.514 163.358 C 260.924 170.834,261.735 170.689,255.848 166.333 C 251.846 163.372,251.895 163.456,252.470 160.591 C 253.671 154.612,250.627 148.271,244.995 145.015 L 242.200 143.400 237.800 143.400 C 229.326 143.400,223.648 148.582,222.939 156.962 L 222.682 160.002 215.841 164.073 C 212.079 166.312,206.750 169.486,204.000 171.127 C 201.250 172.767,198.430 174.433,197.733 174.829 C 197.036 175.225,194.696 176.610,192.533 177.906 C 190.370 179.203,186.440 181.531,183.800 183.080 C 181.160 184.629,177.788 186.641,176.306 187.549 C 170.713 190.980,168.189 190.942,165.998 187.396 C 165.284 186.242,163.633 184.005,158.970 177.878 L 157.507 175.956 158.224 173.478 C 160.912 164.193,155.631 155.405,146.513 153.990 C 138.085 152.683,131.371 157.300,129.199 165.897 C 128.883 167.149,128.457 167.757,127.576 168.213 C 126.239 168.904,112.474 174.800,112.197 174.800 C 112.100 174.800,110.841 175.340,109.400 176.000 C 107.959 176.660,106.700 177.200,106.602 177.200 C 106.504 177.200,105.440 177.650,104.237 178.200 C 101.537 179.435,101.240 179.436,98.838 178.219 C 85.889 171.657,71.592 185.711,78.381 198.328 C 85.120 210.853,105.039 207.798,106.600 194.000 C 107.044 190.067,107.050 190.058,109.510 188.952 C 110.769 188.387,112.430 187.684,113.200 187.390 C 113.970 187.097,116.490 186.018,118.800 184.994 C 133.287 178.569,132.390 178.852,134.127 180.155 C 137.429 182.633,139.577 183.372,143.775 183.475 C 148.846 183.599,147.904 182.921,153.365 190.370 C 163.875 204.703,170.256 205.678,186.400 195.415 C 187.170 194.925,189.060 193.796,190.600 192.906 C 194.684 190.544,200.360 187.215,202.200 186.103 C 203.080 185.571,205.510 184.099,207.600 182.832 C 228.943 169.894,228.222 170.220,231.850 171.865 C 234.541 173.085,240.593 173.441,242.300 172.479 C 243.353 171.886,244.092 172.186,246.600 174.226 C 254.105 180.330,259.143 182.119,265.200 180.832 C 268.739 180.079,268.878 179.998,287.415 167.900 C 295.827 162.410,295.987 162.349,298.516 163.698 C 303.407 166.306,311.819 164.375,316.001 159.683 C 325.268 149.289,314.741 131.604,301.400 135.154 M310.000 136.901 C 316.494 139.791,319.960 146.528,318.408 153.246 C 316.540 161.330,306.873 166.174,299.226 162.857 C 296.503 161.676,294.706 161.862,292.341 163.571 C 291.383 164.262,289.520 165.509,288.200 166.341 C 286.880 167.173,285.282 168.202,284.649 168.627 C 284.015 169.052,283.009 169.670,282.413 170.000 C 281.817 170.330,280.805 171.009,280.165 171.509 C 267.670 181.260,259.560 182.715,251.393 176.671 C 250.003 175.642,248.671 174.800,248.433 174.800 C 248.195 174.800,248.000 174.622,248.000 174.404 C 248.000 174.186,247.011 173.351,245.802 172.549 L 243.604 171.089 241.397 171.783 C 238.633 172.653,235.126 172.345,232.052 170.965 C 228.659 169.441,227.530 169.747,220.800 174.007 C 217.280 176.235,215.078 177.518,211.844 179.224 C 210.548 179.908,208.298 181.233,206.844 182.167 C 203.376 184.396,197.312 188.000,197.030 188.000 C 196.908 188.000,195.664 188.765,194.266 189.700 C 191.373 191.635,190.027 192.450,186.614 194.330 C 185.286 195.062,183.300 196.246,182.200 196.961 C 176.116 200.920,171.153 202.057,166.220 200.623 C 164.100 200.007,159.200 197.038,159.200 196.369 C 159.200 196.219,158.525 195.381,157.700 194.506 C 156.875 193.631,155.087 191.314,153.726 189.358 C 152.366 187.401,150.631 185.125,149.872 184.300 L 148.492 182.800 144.850 182.800 C 140.737 182.800,138.515 182.143,135.418 180.012 C 132.760 178.184,132.041 178.251,126.551 180.844 C 125.204 181.480,123.904 182.000,123.662 182.000 C 123.419 182.000,122.452 182.348,121.511 182.773 C 120.570 183.198,118.540 184.114,117.000 184.808 C 115.460 185.503,112.940 186.525,111.400 187.079 C 106.898 188.701,106.168 189.435,105.837 192.676 C 104.600 204.766,90.517 210.003,82.039 201.525 C 76.343 195.829,76.036 190.349,80.961 182.280 C 83.681 177.823,91.957 176.153,97.955 178.851 C 100.983 180.213,102.095 180.273,104.215 179.192 C 105.087 178.747,106.788 178.014,107.995 177.562 C 109.202 177.110,110.372 176.595,110.595 176.418 C 110.818 176.241,112.170 175.681,113.600 175.173 C 115.030 174.665,116.560 174.027,117.000 173.754 C 117.440 173.481,118.610 172.956,119.600 172.586 C 124.571 170.732,129.072 168.398,129.545 167.430 C 129.768 166.974,130.233 165.610,130.579 164.400 C 131.946 159.613,136.592 155.575,141.676 154.757 C 144.541 154.295,149.255 154.903,150.027 155.832 C 150.286 156.145,150.721 156.400,150.993 156.400 C 154.799 156.400,159.059 166.467,157.595 172.000 C 156.481 176.210,156.542 176.641,158.557 178.795 C 159.571 179.879,160.400 180.941,160.400 181.154 C 160.400 181.368,160.625 181.785,160.900 182.081 C 161.845 183.099,163.842 185.802,164.736 187.273 C 168.080 192.774,171.114 192.226,184.362 183.730 C 185.331 183.109,187.067 182.060,188.219 181.400 C 189.371 180.740,192.718 178.782,195.657 177.048 C 200.871 173.972,207.121 170.295,217.154 164.402 C 223.582 160.626,223.600 160.607,223.600 157.471 C 223.600 152.582,226.748 147.872,231.690 145.365 C 241.845 140.213,253.767 149.402,251.681 160.772 C 251.211 163.334,251.519 164.220,253.326 165.509 C 254.026 166.010,255.856 167.315,257.391 168.409 C 261.322 171.212,262.625 170.996,269.400 166.414 C 270.940 165.373,272.829 164.197,273.597 163.800 C 274.365 163.404,275.715 162.560,276.597 161.926 C 279.386 159.919,282.369 158.000,282.699 158.000 C 282.874 158.000,283.649 157.480,284.421 156.843 C 285.193 156.207,286.657 155.295,287.674 154.817 C 289.849 153.795,290.251 152.973,290.540 148.955 C 291.233 139.307,301.340 133.047,310.000 136.901 M315.800 172.584 C 314.260 173.324,312.550 174.129,312.000 174.373 C 311.004 174.815,311.004 174.816,312.132 174.593 C 312.755 174.469,314.392 173.836,315.771 173.184 C 317.150 172.533,318.575 172.000,318.939 172.000 C 319.952 172.000,319.956 274.812,318.943 277.786 C 316.905 283.767,315.587 284.066,291.934 283.918 L 273.000 283.800 271.114 282.691 C 269.027 281.465,267.548 279.710,266.855 277.640 C 266.337 276.094,266.192 192.934,266.706 192.153 C 266.868 191.907,268.072 191.396,269.383 191.018 C 273.243 189.903,273.787 189.591,288.110 180.286 C 290.480 178.746,292.342 177.409,292.248 177.314 C 292.153 177.220,291.024 177.854,289.738 178.723 C 278.950 186.019,272.420 189.763,268.708 190.781 C 267.667 191.066,266.629 191.524,266.402 191.797 C 266.123 192.134,266.023 206.098,266.095 235.079 L 266.200 277.863 267.400 279.799 C 268.149 281.008,269.352 282.199,270.600 282.968 L 272.600 284.200 292.000 284.319 C 315.678 284.465,316.643 284.256,319.146 278.437 L 320.003 276.445 319.901 223.928 C 319.812 177.603,319.729 171.401,319.200 171.324 C 318.870 171.277,317.340 171.843,315.800 172.584 M294.300 175.829 C 293.475 176.370,292.800 176.920,292.800 177.052 C 292.800 177.272,293.775 176.714,295.789 175.339 C 297.208 174.370,295.840 174.821,294.300 175.829 M299.400 175.200 C 300.060 175.368,301.230 175.506,302.000 175.507 L 303.400 175.508 301.800 175.177 C 299.645 174.731,297.634 174.751,299.400 175.200 M307.200 175.200 L 305.800 175.495 307.200 175.500 C 307.970 175.503,309.140 175.368,309.800 175.200 L 311.000 174.895 309.800 174.900 C 309.140 174.903,307.970 175.038,307.200 175.200 M227.800 182.869 C 224.917 184.470,211.654 192.469,211.000 193.000 C 209.469 194.245,211.058 193.367,219.957 188.057 L 228.912 182.713 232.773 183.357 C 234.897 183.710,237.767 184.000,239.150 184.000 C 241.575 184.000,241.782 184.084,244.933 186.330 C 248.031 188.539,253.201 191.193,254.432 191.206 C 256.278 191.226,256.187 189.255,256.404 233.885 L 256.607 275.800 256.698 234.000 C 256.747 211.010,256.656 192.010,256.494 191.778 C 256.332 191.545,255.030 190.937,253.600 190.426 C 249.889 189.100,247.790 187.970,244.600 185.578 L 241.800 183.478 237.600 183.353 C 235.290 183.284,232.771 183.042,232.003 182.814 C 230.223 182.287,228.814 182.305,227.800 182.869 M127.070 192.670 C 126.448 193.001,126.026 193.360,126.133 193.466 C 126.239 193.572,126.899 193.363,127.599 193.001 C 130.193 191.659,130.025 188.598,129.907 235.090 C 129.847 258.940,129.643 277.749,129.441 278.200 C 129.139 278.874,129.171 278.918,129.641 278.480 C 130.113 278.041,130.200 271.278,130.200 235.080 L 130.200 192.200 129.200 192.133 C 128.650 192.097,127.691 192.338,127.070 192.670 M207.892 194.683 C 207.063 195.252,206.462 195.795,206.556 195.889 C 206.727 196.060,210.000 194.024,210.000 193.747 C 210.000 193.404,209.306 193.713,207.892 194.683 M140.080 194.480 C 139.421 195.139,139.384 274.788,140.042 277.399 C 140.628 279.729,142.887 282.291,145.378 283.451 L 147.400 284.392 166.600 284.379 C 187.185 284.364,187.346 284.349,190.054 282.285 C 191.581 281.120,193.210 278.401,193.182 277.062 C 193.171 276.494,192.974 276.737,192.603 277.777 C 191.804 280.021,190.801 281.227,188.593 282.600 L 186.663 283.800 166.600 283.800 L 146.537 283.800 144.579 282.589 C 143.366 281.839,142.161 280.634,141.411 279.421 L 140.200 277.463 140.086 236.832 C 139.963 192.694,139.902 194.529,141.501 194.286 C 142.587 194.122,142.588 194.119,141.580 194.060 C 141.019 194.027,140.344 194.216,140.080 194.480 M120.243 195.630 C 116.947 197.025,116.557 197.320,116.217 198.675 C 112.583 213.155,94.611 220.968,80.596 214.162 C 77.428 212.623,76.985 212.541,76.643 213.433 C 76.293 214.345,76.355 276.510,76.706 277.062 C 76.868 277.316,76.950 263.301,76.888 245.917 C 76.807 222.980,76.900 214.162,77.226 213.769 C 77.595 213.324,78.165 213.475,80.436 214.618 C 94.165 221.532,111.694 214.180,116.367 199.548 C 116.953 197.712,117.623 197.151,120.600 196.002 C 121.920 195.492,123.171 194.923,123.380 194.738 C 124.041 194.151,123.119 194.413,120.243 195.630 M143.652 195.500 C 144.204 196.105,145.879 198.270,147.376 200.311 C 153.739 208.990,160.537 212.582,170.600 212.583 C 177.642 212.585,180.336 211.717,187.999 206.980 C 189.870 205.824,191.760 204.816,192.200 204.739 C 192.994 204.601,193.002 204.876,193.203 240.200 L 193.406 275.800 193.503 240.380 C 193.575 214.097,193.481 204.841,193.140 204.500 C 192.547 203.907,191.248 204.448,187.000 207.061 C 171.734 216.449,157.592 213.580,146.771 198.900 C 144.947 196.425,143.274 194.400,143.052 194.400 C 142.831 194.400,143.101 194.895,143.652 195.500 M204.070 197.100 L 202.770 198.200 202.885 238.009 L 203.000 277.819 204.332 279.894 C 205.377 281.523,206.187 282.231,208.096 283.185 L 210.528 284.400 229.764 284.391 C 248.261 284.383,249.069 284.351,250.800 283.566 C 253.719 282.243,256.437 279.090,256.368 277.108 C 256.346 276.468,256.161 276.695,255.742 277.879 C 253.659 283.760,252.350 284.055,228.952 283.915 L 209.800 283.800 207.914 282.691 C 205.827 281.465,204.348 279.710,203.655 277.640 C 203.327 276.661,203.200 265.345,203.200 237.173 L 203.200 198.065 204.600 197.200 C 205.370 196.724,206.000 196.259,206.000 196.167 C 206.000 195.737,205.256 196.096,204.070 197.100 M77.200 278.327 C 77.200 279.869,80.322 282.980,82.735 283.841 C 85.074 284.677,121.659 284.626,124.050 283.783 C 125.720 283.195,129.200 280.264,129.200 279.445 C 129.200 279.231,128.566 279.797,127.790 280.703 C 124.949 284.022,124.710 284.053,102.638 283.918 L 83.400 283.800 81.469 282.665 C 80.296 281.976,79.079 280.806,78.369 279.687 C 77.726 278.673,77.200 278.061,77.200 278.327 " stroke="none" fill="#a0bdc9" fill-rule="evenodd"></path><path id="path4" d="M315.600 173.225 C 311.268 175.424,304.428 176.221,299.090 175.149 L 296.847 174.699 294.246 176.341 C 291.881 177.835,288.018 180.331,278.960 186.219 C 274.771 188.943,272.326 190.168,269.383 191.018 C 268.072 191.396,266.868 191.907,266.706 192.153 C 266.192 192.934,266.337 276.094,266.855 277.640 C 267.548 279.710,269.027 281.465,271.114 282.691 L 273.000 283.800 291.934 283.918 C 313.459 284.053,314.006 283.994,316.759 281.241 C 319.787 278.213,319.600 281.988,319.600 223.929 L 319.600 172.000 318.700 172.054 C 318.205 172.084,316.810 172.611,315.600 173.225 M318.800 224.937 L 318.800 277.074 317.899 278.778 C 317.404 279.715,316.216 281.048,315.260 281.741 L 313.521 283.000 292.995 283.000 L 272.469 283.000 270.756 281.796 C 269.780 281.110,268.648 279.820,268.123 278.796 L 267.202 277.000 267.194 234.827 C 267.189 210.456,267.337 192.503,267.544 192.296 C 267.742 192.098,268.639 191.771,269.539 191.569 C 272.058 191.003,274.992 189.478,280.632 185.803 C 297.691 174.686,296.895 175.154,298.190 175.488 C 302.665 176.642,312.053 175.653,316.000 173.611 C 319.096 172.009,318.800 166.592,318.800 224.937 M219.618 188.218 C 214.678 191.178,210.571 193.600,210.490 193.600 C 210.410 193.600,209.559 194.140,208.600 194.800 C 207.641 195.460,206.749 196.000,206.619 196.000 C 206.489 196.000,205.667 196.474,204.791 197.053 L 203.200 198.106 203.200 237.193 C 203.200 265.350,203.327 276.661,203.655 277.640 C 204.348 279.710,205.827 281.465,207.914 282.691 L 209.800 283.800 228.952 283.915 C 250.638 284.045,250.812 284.025,253.614 281.138 C 256.552 278.110,256.400 280.676,256.400 234.157 C 256.400 189.352,256.482 191.200,254.503 191.200 C 253.224 191.200,248.122 188.604,244.933 186.330 C 241.726 184.044,241.614 184.000,238.933 183.986 C 237.430 183.978,234.760 183.712,233.000 183.394 C 231.240 183.076,229.530 182.820,229.200 182.826 C 228.870 182.831,224.558 185.258,219.618 188.218 M231.865 183.800 C 233.131 184.130,235.710 184.400,237.595 184.400 L 241.021 184.400 244.211 186.643 C 247.587 189.017,251.664 191.060,253.995 191.544 L 255.400 191.836 255.502 234.452 L 255.604 277.067 254.701 278.774 C 254.204 279.713,253.016 281.048,252.060 281.741 L 250.322 283.000 230.261 283.109 L 210.200 283.218 208.423 282.309 C 206.263 281.204,204.461 279.030,203.978 276.948 C 203.547 275.090,203.482 199.205,203.911 198.531 C 204.147 198.160,214.624 191.600,214.981 191.600 C 215.031 191.600,218.207 189.717,222.036 187.415 C 225.866 185.113,229.126 183.223,229.280 183.215 C 229.435 183.207,230.598 183.470,231.865 183.800 M127.400 193.012 C 125.540 193.898,121.153 195.800,119.600 196.395 C 117.647 197.144,116.903 197.869,116.367 199.548 C 111.694 214.180,94.165 221.532,80.436 214.618 C 78.165 213.475,77.595 213.324,77.226 213.769 C 76.900 214.162,76.807 222.972,76.888 245.887 L 77.000 277.463 78.211 279.421 C 78.960 280.634,80.166 281.840,81.379 282.589 L 83.336 283.800 102.606 283.918 C 124.691 284.053,124.951 284.020,127.773 280.723 C 130.089 278.017,130.053 278.804,129.921 233.805 C 129.788 188.521,129.989 191.780,127.400 193.012 M129.600 233.969 C 129.600 278.439,129.637 277.678,127.324 280.380 C 124.855 283.264,125.066 283.241,102.739 283.113 L 82.878 283.000 81.139 281.743 C 80.183 281.052,78.996 279.702,78.502 278.743 L 77.603 277.000 77.597 246.200 C 77.593 229.260,77.593 215.097,77.595 214.726 C 77.599 214.154,78.039 214.254,80.500 215.385 C 94.443 221.795,109.965 215.713,116.186 201.404 C 116.926 199.701,117.722 198.118,117.954 197.886 C 118.553 197.287,128.056 193.231,128.900 193.214 C 129.562 193.201,129.600 195.403,129.600 233.969 M140.194 195.300 C 140.072 195.795,140.024 214.484,140.086 236.832 L 140.200 277.463 141.411 279.421 C 142.161 280.634,143.366 281.839,144.579 282.589 L 146.537 283.800 166.600 283.800 L 186.663 283.800 188.624 282.588 C 193.418 279.624,193.221 281.488,193.102 240.149 C 193.001 204.848,192.994 204.601,192.200 204.739 C 191.760 204.816,189.870 205.824,187.999 206.980 C 180.336 211.717,177.642 212.585,170.600 212.583 C 160.537 212.582,153.739 208.990,147.376 200.311 C 142.880 194.179,140.822 192.744,140.194 195.300 M142.434 195.218 C 142.863 195.448,144.724 197.653,146.570 200.118 C 152.610 208.187,158.381 211.919,166.857 213.237 C 173.780 214.313,179.453 212.788,188.101 207.528 C 190.247 206.222,192.182 205.265,192.401 205.401 C 192.661 205.562,192.800 217.924,192.800 240.952 L 192.800 276.257 191.700 278.426 C 190.980 279.846,190.001 281.010,188.866 281.798 L 187.132 283.000 167.049 283.111 L 146.966 283.221 145.183 282.288 C 144.081 281.711,142.903 280.620,142.100 279.432 L 140.800 277.510 140.800 236.155 C 140.800 207.151,140.927 194.800,141.226 194.800 C 141.461 194.800,142.004 194.988,142.434 195.218 " stroke="none" fill="#90909c" fill-rule="evenodd"></path></g></svg>